<svg width="47" height="47" viewBox="0 0 47 47" fill="none" xmlns="http://www.w3.org/2000/svg">
<mask id="mask0_0_1" style="mask-type:luminance" maskUnits="userSpaceOnUse" x="0" y="0" width="47" height="47">
<path d="M47 0H0V47H47V0Z" fill="white"/>
</mask>
<g mask="url(#mask0_0_1)">
<path d="M40.0925 40.0801C44.5243 35.6774 47.0088 29.7138 47.0002 23.4994C46.9955 23.1159 46.8383 22.7495 46.5625 22.48C46.2868 22.2103 45.9149 22.0592 45.5273 22.0592C45.1395 22.0592 44.7676 22.2103 44.4918 22.48C44.216 22.7495 44.0589 23.1159 44.0542 23.4994C44.0604 28.9454 41.882 34.1715 37.9977 38.0292C36.1121 39.9451 33.8578 41.4678 31.3677 42.5077C28.8778 43.5473 26.2027 44.083 23.5002 44.083C20.7977 44.083 18.1225 43.5473 15.6326 42.5077C13.1427 41.4678 10.8884 39.9451 9.0027 38.0292C5.12359 34.1676 2.94626 28.9437 2.94626 23.4986C2.94626 18.0533 5.12359 12.8294 9.0027 8.96778C10.8774 7.06664 13.1148 5.55269 15.5851 4.51372C18.0555 3.47477 20.7097 2.93145 23.3938 2.91528C23.9669 2.93304 24.5103 3.17171 24.9082 3.58035C25.3061 3.98897 25.5268 4.53527 25.5234 5.10272C25.5202 5.67016 25.293 6.21387 24.8903 6.61792C24.4877 7.02194 23.9415 7.25431 23.3682 7.26548C23.3151 7.26558 23.262 7.2685 23.2094 7.2742C19.1257 7.40435 15.251 9.0918 12.3954 11.9837C9.37967 14.9881 7.68713 19.051 7.68713 23.2858C7.68713 27.5207 9.37967 31.5835 12.3954 34.588C13.8687 36.0816 15.6289 37.2684 17.5726 38.0787C19.5162 38.889 21.604 39.3064 23.713 39.3064C25.822 39.3064 27.9099 38.889 29.8535 38.0787C31.797 37.2684 33.5573 36.0816 35.0306 34.588C38.051 31.5867 39.7443 27.5218 39.7382 23.2858C39.7445 22.6187 39.617 21.9567 39.3633 21.3385C39.1095 20.7204 38.7346 20.158 38.26 19.6841C37.7853 19.2101 37.2206 18.8338 36.5983 18.5771C35.976 18.3203 35.3086 18.1881 34.6342 18.1881C33.9599 18.1881 33.2925 18.3203 32.6702 18.5771C32.0478 18.8338 31.4831 19.2101 31.0085 19.6841C30.5339 20.158 30.159 20.7204 29.9051 21.3385C29.6515 21.9567 29.524 22.6187 29.5302 23.2858C29.5302 23.3284 29.533 23.3684 29.5365 23.4092C29.533 23.4501 29.5302 23.4909 29.5302 23.5326C29.5399 24.6959 29.2001 25.8357 28.5539 26.8077C27.9079 27.7794 26.9847 28.5393 25.9015 28.9912C24.8183 29.4428 23.6238 29.566 22.4699 29.3449C21.3158 29.1237 20.2542 28.5685 19.4196 27.7492C18.585 26.93 18.0151 25.884 17.7823 24.7437C17.5494 23.6035 17.664 22.4204 18.1116 21.3449C18.5592 20.2691 19.3196 19.3493 20.2963 18.702C21.2729 18.0547 22.422 17.7091 23.5974 17.709C23.7923 17.7114 23.9858 17.6754 24.1666 17.6032C24.3474 17.5309 24.5118 17.4239 24.6504 17.2883C24.7891 17.1527 24.8994 16.9913 24.9744 16.8132C25.0496 16.6352 25.0883 16.4442 25.0883 16.2513C25.0883 16.0583 25.0496 15.8673 24.9744 15.6893C24.8994 15.5113 24.7891 15.3498 24.6504 15.2142C24.5118 15.0786 24.3474 14.9716 24.1666 14.8994C23.9858 14.8272 23.7923 14.7912 23.5974 14.7935C21.853 14.8031 20.1504 15.3238 18.7047 16.2899C17.2589 17.256 16.1347 18.6242 15.4738 20.222C14.813 21.8197 14.6451 23.5754 14.9913 25.2675C15.3376 26.9596 16.1825 28.5121 17.4195 29.7296C18.6564 30.9468 20.23 31.7744 21.9417 32.1077C23.6533 32.4409 25.4265 32.2649 27.0371 31.6021C28.6478 30.9392 30.0242 29.8191 30.9924 28.383C31.9606 26.9468 32.4771 25.259 32.4771 23.5326C32.4771 23.4901 32.4743 23.4501 32.4709 23.4092C32.4743 23.3684 32.4771 23.3275 32.4771 23.2858C32.4713 23.0018 32.5229 22.7196 32.6289 22.4553C32.7346 22.1913 32.8928 21.9507 33.0936 21.748C33.2946 21.545 33.5345 21.3838 33.7991 21.2738C34.0637 21.1638 34.3481 21.1072 34.6351 21.1072C34.9221 21.1072 35.2065 21.1638 35.4711 21.2738C35.7357 21.3838 35.9756 21.545 36.1766 21.748C36.3773 21.9507 36.5355 22.1913 36.6413 22.4553C36.7473 22.7196 36.7989 23.0018 36.7931 23.2858C36.7969 26.7538 35.4098 30.0814 32.9363 32.5379C31.737 33.7573 30.303 34.7263 28.719 35.3881C27.1349 36.0499 25.4329 36.3907 23.7134 36.3907C21.9942 36.3907 20.2922 36.0499 18.7082 35.3881C17.1241 34.7263 15.6901 33.7573 14.4908 32.5379C12.0206 30.0793 10.6341 26.753 10.6341 23.2858C10.6341 19.8187 12.0206 16.4925 14.4908 14.0338C15.6911 12.816 17.1251 11.8479 18.7087 11.1862C20.2924 10.5246 21.9936 10.1828 23.7126 10.181C23.8448 10.1806 23.9763 10.1626 24.1038 10.1274C25.3579 9.93706 26.4965 9.29522 27.3018 8.32502C28.107 7.35481 28.5219 6.12454 28.4668 4.87024C28.4118 3.61592 27.8905 2.42588 27.0034 1.52842C26.1163 0.630946 24.9256 0.0892344 23.6597 0.00720202C23.6068 0.00150182 23.5535 -0.00140973 23.5002 -0.00152016C23.4705 -0.00152016 23.4411 -0.00152016 23.4114 -0.00152016C23.3968 -0.00152016 23.3826 -0.00152016 23.3684 -0.00152016C23.3542 -0.00152016 23.3396 0.000180546 23.3254 0.000606015C20.2631 0.0244398 17.2359 0.647935 14.4182 1.83515C11.6005 3.02235 9.04821 4.74979 6.90835 6.91787C2.48384 11.3253 0.000608444 17.2857 0.000608444 23.4986C0.000608444 29.7113 2.48384 35.6717 6.90835 40.0791C9.06798 42.2692 11.6485 44.0098 14.498 45.1979C17.3475 46.3862 20.4085 46.9985 23.5006 46.9985C26.5928 46.9985 29.6536 46.3862 32.5033 45.1979C35.3528 44.0098 37.9332 42.2692 40.0929 40.0791L40.0925 40.0801Z" fill="#F2F1EE"/>
</g>
</svg>
